<svg xmlns="http://www.w3.org/2000/svg" viewBox="16 0 478 94" width="478" height="94">
  <defs>
    <radialGradient id="pf" cx="50%" cy="50%" r="55%">
      <stop offset="0%" stop-color="#3ABFB0" stop-opacity="0.20"/>
      <stop offset="100%" stop-color="#289E8E" stop-opacity="0.10"/>
    </radialGradient>
    <radialGradient id="cg" cx="45%" cy="40%" r="55%">
      <stop offset="0%" stop-color="#36C2B2"/>
      <stop offset="100%" stop-color="#228B7E"/>
    </radialGradient>
    <linearGradient id="tg" x1="0%" y1="0%" x2="100%" y2="5%">
      <stop offset="0%" stop-color="#166C5C"/>
      <stop offset="40%" stop-color="#1E8B7E"/>
      <stop offset="100%" stop-color="#2DA69A"/>
    </linearGradient>
    <style>
      @import url('https://fonts.googleapis.com/css2?family=Italiana&amp;display=swap');
    </style>
  </defs>
  
  <!-- Orchid Icon -->
  <g>
    <path d="M68.0,62.0 L70.4,61.0 L71.8,60.0 L73.0,59.0 L74.1,58.1 L75.0,57.1 L75.7,56.1 L76.3,55.1 L76.8,54.1 L77.2,53.1 L77.5,52.1 L77.8,51.1 L78.1,50.2 L78.5,49.2 L79.0,48.2 L79.7,47.2 L80.4,46.2 L81.1,45.2 L81.9,44.2 L82.6,43.3 L83.2,42.3 L83.6,41.3 L83.9,40.3 L83.9,39.3 L83.8,38.3 L83.5,37.3 L83.2,36.3 L82.8,35.4 L82.5,34.4 L82.3,33.4 L82.2,32.4 L82.3,31.4 L82.5,30.4 L82.8,29.4 L83.2,28.5 L83.5,27.5 L83.8,26.5 L83.9,25.5 L83.9,24.5 L83.6,23.5 L83.2,22.5 L82.6,21.5 L81.9,20.6 L81.1,19.6 L80.4,18.6 L79.7,17.6 L79.0,16.6 L78.5,15.6 L78.1,14.6 L77.8,13.7 L77.5,12.7 L77.2,11.7 L76.8,10.7 L76.3,9.7 L75.7,8.7 L75.0,7.7 L74.1,6.7 L73.0,5.8 L71.8,4.8 L70.4,3.8 L68.0,2.8 L68.0,2.8 L65.8,3.8 L64.6,4.8 L63.7,5.8 L62.9,6.7 L62.1,7.7 L61.3,8.7 L60.4,9.7 L59.5,10.7 L58.6,11.7 L57.7,12.7 L56.8,13.7 L56.1,14.6 L55.5,15.6 L55.1,16.6 L54.8,17.6 L54.7,18.6 L54.7,19.6 L54.8,20.6 L54.9,21.5 L54.9,22.5 L54.8,23.5 L54.6,24.5 L54.2,25.5 L53.7,26.5 L53.1,27.5 L52.5,28.5 L52.0,29.4 L51.5,30.4 L51.2,31.4 L51.1,32.4 L51.2,33.4 L51.5,34.4 L52.0,35.4 L52.5,36.3 L53.1,37.3 L53.7,38.3 L54.2,39.3 L54.6,40.3 L54.8,41.3 L54.9,42.3 L54.9,43.3 L54.8,44.2 L54.7,45.2 L54.7,46.2 L54.8,47.2 L55.1,48.2 L55.5,49.2 L56.1,50.2 L56.8,51.1 L57.7,52.1 L58.6,53.1 L59.5,54.1 L60.4,55.1 L61.3,56.1 L62.1,57.1 L62.9,58.1 L63.7,59.0 L64.6,60.0 L65.8,61.0 L68.0,62.0Z" fill="url(#pf)" stroke="#289E8E" stroke-width="0.8" stroke-linejoin="round"/>
    <path d="M68.0,59.0 L68.0,57.7 L68.1,56.4 L68.1,55.0 L68.1,53.7 L68.1,52.4 L68.0,51.0 L67.9,49.7 L67.8,48.4 L67.8,47.1 L67.8,45.7 L67.9,44.4 L68.1,43.1 L68.2,41.7 L68.3,40.4 L68.3,39.1 L68.2,37.7 L68.0,36.4 L67.8,35.1 L67.7,33.7 L67.6,32.4 L67.7,31.1 L67.8,29.7 L68.0,28.4 L68.2,27.1 L68.3,25.7 L68.3,24.4 L68.2,23.1 L68.1,21.7 L67.9,20.4 L67.8,19.1 L67.8,17.7 L67.8,16.4 L67.9,15.1 L68.0,13.8 L68.1,12.4 L68.1,11.1 L68.1,9.8 L68.1,8.4 L68.0,7.1 L68.0,5.8" fill="none" stroke="#289E8E" stroke-width="0.4" stroke-opacity="0.3"/>
    <path d="M68.0,62.0 L68.0,59.8 L67.8,58.3 L67.4,57.0 L67.0,55.8 L66.5,54.8 L65.9,53.9 L65.3,53.2 L64.7,52.5 L64.0,51.9 L63.3,51.3 L62.7,50.6 L62.1,49.8 L61.5,49.0 L61.0,48.0 L60.5,47.0 L60.0,46.0 L59.5,45.0 L58.9,44.2 L58.3,43.6 L57.6,43.1 L56.7,42.8 L55.9,42.6 L55.0,42.5 L54.1,42.3 L53.2,42.2 L52.4,41.8 L51.7,41.4 L51.0,40.8 L50.4,40.0 L49.8,39.3 L49.2,38.5 L48.5,37.8 L47.8,37.3 L47.0,37.0 L46.1,36.9 L45.2,37.0 L44.1,37.1 L43.1,37.3 L42.1,37.5 L41.1,37.6 L40.1,37.6 L39.3,37.4 L38.4,37.2 L37.7,36.8 L36.9,36.4 L36.1,36.1 L35.2,35.9 L34.3,35.8 L33.4,35.8 L32.3,36.1 L31.2,36.4 L30.1,36.8 L29.0,37.2 L27.9,37.6 L26.8,37.9 L25.7,38.2 L24.6,38.5 L23.5,38.9 L22.3,39.5 L20.7,40.8 L20.7,40.8 L20.7,43.0 L21.0,44.5 L21.3,45.8 L21.7,47.0 L22.2,48.0 L22.8,48.9 L23.4,49.7 L24.0,50.3 L24.7,50.9 L25.4,51.6 L26.0,52.2 L26.6,53.0 L27.2,53.9 L27.7,54.8 L28.2,55.8 L28.7,56.8 L29.2,57.8 L29.8,58.6 L30.4,59.3 L31.2,59.8 L32.0,60.1 L32.8,60.3 L33.7,60.4 L34.6,60.5 L35.5,60.7 L36.3,61.0 L37.0,61.5 L37.7,62.1 L38.3,62.8 L38.9,63.6 L39.5,64.3 L40.2,65.0 L40.9,65.5 L41.7,65.8 L42.6,65.9 L43.6,65.9 L44.6,65.7 L45.6,65.5 L46.7,65.3 L47.6,65.2 L48.6,65.2 L49.5,65.4 L50.3,65.7 L51.1,66.0 L51.8,66.4 L52.6,66.7 L53.5,67.0 L54.4,67.1 L55.4,67.0 L56.4,66.8 L57.5,66.5 L58.6,66.1 L59.7,65.7 L60.9,65.3 L62.0,64.9 L63.1,64.6 L64.1,64.3 L65.2,63.9 L66.4,63.4 L68.0,62.0Z" fill="url(#pf)" stroke="#289E8E" stroke-width="0.8" stroke-linejoin="round"/>
    <path d="M65.6,60.9 L64.6,60.5 L63.5,59.9 L62.5,59.4 L61.4,59.0 L60.3,58.6 L59.2,58.2 L58.1,57.8 L57.0,57.3 L56.0,56.8 L55.0,56.2 L54.0,55.6 L53.0,55.0 L51.9,54.5 L50.8,54.1 L49.7,53.8 L48.5,53.5 L47.4,53.2 L46.3,52.7 L45.3,52.1 L44.4,51.4 L43.4,50.7 L42.4,50.2 L41.3,49.7 L40.2,49.3 L39.0,49.0 L37.9,48.7 L36.8,48.4 L35.7,47.9 L34.7,47.3 L33.7,46.7 L32.7,46.1 L31.7,45.5 L30.6,45.1 L29.5,44.7 L28.4,44.3 L27.3,43.9 L26.2,43.4 L25.2,42.9 L24.1,42.4 L23.1,41.9" fill="none" stroke="#289E8E" stroke-width="0.4" stroke-opacity="0.3"/>
    <path d="M68.0,62.0 L69.6,63.5 L70.9,64.3 L72.1,64.9 L73.3,65.3 L74.4,65.7 L75.4,65.8 L76.4,65.9 L77.3,65.8 L78.2,65.7 L79.1,65.7 L80.0,65.6 L81.0,65.7 L82.0,65.9 L83.1,66.1 L84.2,66.4 L85.2,66.7 L86.3,67.0 L87.3,67.1 L88.2,67.0 L89.1,66.8 L89.8,66.4 L90.6,65.9 L91.2,65.3 L91.9,64.7 L92.6,64.2 L93.4,63.8 L94.2,63.6 L95.2,63.5 L96.1,63.5 L97.1,63.6 L98.0,63.6 L99.0,63.6 L99.8,63.4 L100.6,63.0 L101.3,62.4 L101.9,61.6 L102.5,60.8 L103.0,59.9 L103.5,59.0 L104.1,58.2 L104.8,57.5 L105.5,56.9 L106.2,56.5 L107.0,56.2 L107.8,55.8 L108.6,55.5 L109.3,55.0 L110.0,54.4 L110.6,53.6 L111.1,52.7 L111.6,51.6 L112.1,50.6 L112.5,49.4 L113.0,48.3 L113.4,47.3 L113.9,46.3 L114.4,45.3 L114.9,44.2 L115.3,42.9 L115.3,40.8 L115.3,40.8 L113.7,39.3 L112.4,38.6 L111.2,38.0 L110.0,37.5 L108.9,37.2 L107.9,37.0 L106.9,37.0 L106.0,37.0 L105.1,37.1 L104.2,37.2 L103.3,37.2 L102.3,37.1 L101.3,37.0 L100.2,36.7 L99.1,36.4 L98.0,36.1 L97.0,35.9 L96.0,35.8 L95.1,35.8 L94.2,36.0 L93.4,36.4 L92.7,36.9 L92.0,37.5 L91.4,38.1 L90.6,38.6 L89.9,39.0 L89.0,39.3 L88.1,39.4 L87.2,39.3 L86.2,39.3 L85.2,39.2 L84.3,39.3 L83.5,39.5 L82.7,39.9 L82.0,40.4 L81.4,41.2 L80.8,42.1 L80.3,43.0 L79.7,43.9 L79.2,44.7 L78.5,45.4 L77.8,45.9 L77.1,46.3 L76.3,46.7 L75.5,47.0 L74.7,47.4 L74.0,47.9 L73.3,48.5 L72.7,49.3 L72.2,50.2 L71.7,51.2 L71.2,52.3 L70.8,53.4 L70.3,54.5 L69.8,55.6 L69.4,56.6 L68.9,57.6 L68.4,58.7 L68.0,59.9 L68.0,62.0Z" fill="url(#pf)" stroke="#289E8E" stroke-width="0.8" stroke-linejoin="round"/>
    <path d="M70.4,60.9 L71.4,60.5 L72.5,60.0 L73.6,59.6 L74.6,59.1 L75.7,58.6 L76.7,58.0 L77.7,57.4 L78.8,56.9 L79.9,56.5 L81.0,56.2 L82.1,55.9 L83.2,55.5 L84.3,55.0 L85.3,54.5 L86.3,53.8 L87.3,53.1 L88.3,52.5 L89.4,52.1 L90.5,51.7 L91.6,51.4 L92.8,51.1 L93.9,50.8 L95.0,50.3 L96.0,49.7 L97.0,49.0 L97.9,48.4 L99.0,47.8 L100.0,47.4 L101.1,47.0 L102.3,46.7 L103.4,46.3 L104.5,45.9 L105.5,45.4 L106.6,44.8 L107.6,44.3 L108.6,43.7 L109.7,43.3 L110.8,42.8 L111.8,42.4 L112.9,41.9" fill="none" stroke="#289E8E" stroke-width="0.4" stroke-opacity="0.3"/>
    <path d="M68.0,62.0 L66.3,61.1 L65.0,60.7 L63.8,60.5 L62.7,60.4 L61.7,60.4 L60.8,60.5 L60.0,60.7 L59.3,61.0 L58.5,61.3 L57.7,61.5 L56.8,61.6 L55.8,61.6 L54.8,61.6 L53.7,61.5 L52.7,61.5 L51.8,61.5 L51.0,61.8 L50.3,62.1 L49.7,62.7 L49.2,63.3 L48.8,63.9 L48.3,64.6 L47.7,65.1 L47.0,65.4 L46.2,65.6 L45.3,65.7 L44.3,65.8 L43.4,65.9 L42.6,66.1 L41.9,66.5 L41.4,67.1 L41.0,67.9 L40.7,68.7 L40.5,69.6 L40.2,70.5 L39.8,71.2 L39.3,71.8 L38.7,72.3 L38.0,72.7 L37.2,73.0 L36.5,73.3 L35.9,73.8 L35.4,74.3 L35.0,75.1 L34.7,76.0 L34.5,77.0 L34.4,78.0 L34.2,79.0 L34.0,80.0 L33.7,80.8 L33.3,81.6 L32.9,82.3 L32.4,83.0 L32.1,83.7 L31.7,84.6 L31.5,85.5 L31.4,86.6 L31.4,87.8 L31.5,89.2 L32.0,91.1 L32.0,91.1 L33.7,91.9 L34.8,92.1 L35.9,92.1 L36.9,92.2 L37.9,92.2 L39.0,92.3 L40.1,92.5 L41.2,92.6 L42.2,92.6 L43.2,92.6 L44.0,92.4 L44.7,92.1 L45.4,91.7 L46.0,91.2 L46.6,90.7 L47.3,90.3 L48.0,90.0 L48.8,89.8 L49.8,89.8 L50.8,89.8 L51.8,89.8 L52.7,89.7 L53.5,89.5 L54.2,89.1 L54.7,88.5 L55.1,87.8 L55.5,87.0 L55.9,86.2 L56.3,85.5 L56.8,85.0 L57.5,84.6 L58.3,84.3 L59.1,84.1 L59.9,83.9 L60.7,83.6 L61.4,83.3 L61.9,82.7 L62.3,81.9 L62.6,81.0 L62.8,80.1 L63.0,79.1 L63.2,78.2 L63.6,77.4 L64.0,76.7 L64.6,76.2 L65.2,75.7 L65.8,75.2 L66.3,74.7 L66.8,74.0 L67.1,73.2 L67.4,72.3 L67.6,71.3 L67.7,70.2 L67.8,69.1 L67.9,68.0 L68.1,67.0 L68.2,66.0 L68.4,64.9 L68.5,63.8 L68.0,62.0Z" fill="url(#pf)" stroke="#289E8E" stroke-width="0.8" stroke-linejoin="round"/>
    <path d="M66.2,63.5 L65.4,64.1 L64.5,64.7 L63.7,65.4 L62.9,66.0 L62.2,66.8 L61.4,67.5 L60.7,68.2 L59.8,68.8 L58.9,69.3 L58.0,69.8 L57.1,70.4 L56.3,71.1 L55.6,71.9 L55.0,72.7 L54.3,73.5 L53.5,74.2 L52.6,74.7 L51.6,75.2 L50.6,75.7 L49.8,76.2 L49.0,77.0 L48.4,77.8 L47.7,78.6 L47.0,79.4 L46.2,80.0 L45.2,80.6 L44.3,81.0 L43.4,81.6 L42.5,82.2 L41.8,82.9 L41.1,83.7 L40.4,84.5 L39.6,85.2 L38.8,85.8 L37.9,86.4 L37.0,87.0 L36.2,87.6 L35.4,88.2 L34.6,88.9 L33.8,89.6" fill="none" stroke="#289E8E" stroke-width="0.4" stroke-opacity="0.3"/>
    <path d="M68.0,62.0 L67.5,63.9 L67.4,65.2 L67.4,66.4 L67.5,67.5 L67.7,68.5 L68.0,69.3 L68.4,70.1 L68.9,70.8 L69.3,71.5 L69.7,72.2 L70.0,73.1 L70.2,74.0 L70.4,75.0 L70.5,76.1 L70.7,77.1 L71.0,78.0 L71.4,78.7 L71.9,79.3 L72.5,79.7 L73.2,80.1 L74.0,80.4 L74.7,80.7 L75.3,81.2 L75.8,81.8 L76.2,82.6 L76.5,83.4 L76.7,84.3 L77.0,85.2 L77.4,85.9 L77.9,86.5 L78.6,86.9 L79.4,87.1 L80.3,87.2 L81.3,87.3 L82.2,87.4 L83.0,87.6 L83.7,88.0 L84.3,88.5 L84.8,89.1 L85.2,89.8 L85.7,90.4 L86.3,90.9 L87.0,91.3 L87.8,91.5 L88.7,91.6 L89.7,91.6 L90.8,91.5 L91.8,91.4 L92.8,91.5 L93.6,91.6 L94.5,91.8 L95.2,92.1 L96.0,92.3 L96.8,92.6 L97.7,92.7 L98.7,92.7 L99.8,92.6 L101.0,92.4 L102.3,92.0 L104.0,91.1 L104.0,91.1 L104.4,89.3 L104.4,88.1 L104.2,87.1 L104.1,86.1 L103.9,85.0 L103.8,84.0 L103.7,82.9 L103.5,81.8 L103.4,80.8 L103.1,79.8 L102.8,79.1 L102.3,78.4 L101.8,77.9 L101.2,77.4 L100.6,76.9 L100.0,76.3 L99.6,75.7 L99.2,74.9 L99.0,74.0 L98.8,73.0 L98.6,72.0 L98.3,71.1 L97.9,70.4 L97.4,69.8 L96.7,69.4 L95.9,69.1 L95.1,69.0 L94.2,68.8 L93.5,68.5 L92.8,68.1 L92.3,67.5 L91.8,66.8 L91.5,66.1 L91.1,65.3 L90.7,64.6 L90.2,64.0 L89.5,63.6 L88.7,63.4 L87.8,63.3 L86.8,63.3 L85.8,63.3 L84.8,63.2 L84.0,63.1 L83.2,62.8 L82.6,62.3 L82.0,61.9 L81.4,61.4 L80.7,61.0 L80.0,60.7 L79.1,60.5 L78.2,60.4 L77.1,60.5 L76.1,60.6 L75.0,60.7 L73.9,60.8 L72.9,60.9 L71.8,60.9 L70.8,61.0 L69.7,61.2 L68.0,62.0Z" fill="url(#pf)" stroke="#289E8E" stroke-width="0.8" stroke-linejoin="round"/>
    <path d="M69.8,63.5 L70.6,64.1 L71.4,64.8 L72.2,65.5 L73.0,66.1 L73.9,66.7 L74.8,67.3 L75.6,67.9 L76.4,68.6 L77.1,69.4 L77.8,70.1 L78.5,70.9 L79.4,71.5 L80.3,72.0 L81.2,72.5 L82.1,73.0 L83.0,73.7 L83.7,74.4 L84.3,75.3 L85.0,76.1 L85.8,76.8 L86.6,77.4 L87.6,77.9 L88.5,78.3 L89.4,78.9 L90.2,79.5 L90.9,80.3 L91.6,81.2 L92.3,81.9 L93.1,82.6 L94.0,83.2 L94.9,83.7 L95.8,84.3 L96.6,84.9 L97.4,85.6 L98.2,86.3 L98.9,87.0 L99.7,87.7 L100.5,88.3 L101.4,89.0 L102.2,89.6" fill="none" stroke="#289E8E" stroke-width="0.4" stroke-opacity="0.3"/>
    <circle cx="68.0" cy="62.0" r="8.1" fill="url(#cg)"/>
    <clipPath id="c680"><circle cx="68.0" cy="62.0" r="8.1"/></clipPath>
    <path d="M61.1,62.0 L61.4,63.2 L61.8,64.1 L62.1,64.6 L62.5,64.5 L62.8,63.8 L63.2,62.8 L63.5,61.6 L63.8,60.5 L64.2,59.7 L64.5,59.4 L64.9,59.7 L65.2,60.5 L65.6,61.6 L65.9,62.8 L66.3,63.8 L66.6,64.5 L67.0,64.6 L67.3,64.1 L67.7,63.2 L68.0,62.0 L68.3,60.8 L68.7,59.9 L69.0,59.4 L69.4,59.5 L69.7,60.2 L70.1,61.2 L70.4,62.4 L70.8,63.5 L71.1,64.3 L71.5,64.6 L71.8,64.3 L72.2,63.5 L72.5,62.4 L72.8,61.2 L73.2,60.2 L73.5,59.5 L73.9,59.4 L74.2,59.9 L74.6,60.8 L74.9,62.0" fill="none" stroke="white" stroke-width="1.0" stroke-linecap="round" clip-path="url(#c680)"/>
  </g>
  
  <!-- Wordmark -->
  <text x="125" y="82" 
    font-family="Italiana, 'Didot', 'Bodoni MT', Georgia, serif" 
    font-size="72" 
    fill="url(#tg)" 
    letter-spacing="4">Dictune</text>
</svg>