<svg xmlns="http://www.w3.org/2000/svg" viewBox="120 88 272 260" width="272" height="260">
  <defs>
    <radialGradient id="pf" cx="50%" cy="50%" r="55%">
      <stop offset="0%" stop-color="#3ABFB0" stop-opacity="0.20"/>
      <stop offset="100%" stop-color="#289E8E" stop-opacity="0.10"/>
    </radialGradient>
    <radialGradient id="cg" cx="45%" cy="40%" r="55%">
      <stop offset="0%" stop-color="#36C2B2"/>
      <stop offset="100%" stop-color="#228B7E"/>
    </radialGradient>
  </defs>
  <g>
    <path d="M256.0,256.0 L262.4,253.3 L266.2,250.7 L269.5,248.0 L272.4,245.3 L274.9,242.7 L276.9,240.0 L278.6,237.3 L279.8,234.7 L280.8,232.0 L281.6,229.3 L282.4,226.7 L283.3,224.0 L284.4,221.3 L285.8,218.7 L287.5,216.0 L289.4,213.3 L291.5,210.7 L293.6,208.0 L295.5,205.3 L297.1,202.7 L298.3,200.0 L298.9,197.3 L299.1,194.7 L298.7,192.0 L298.0,189.3 L297.0,186.7 L296.0,184.0 L295.2,181.3 L294.6,178.7 L294.4,176.0 L294.6,173.3 L295.2,170.7 L296.0,168.0 L297.0,165.3 L298.0,162.7 L298.7,160.0 L299.1,157.3 L298.9,154.7 L298.3,152.0 L297.1,149.3 L295.5,146.7 L293.6,144.0 L291.5,141.3 L289.4,138.7 L287.5,136.0 L285.8,133.3 L284.4,130.7 L283.3,128.0 L282.4,125.3 L281.6,122.7 L280.8,120.0 L279.8,117.3 L278.6,114.7 L276.9,112.0 L274.9,109.3 L272.4,106.7 L269.5,104.0 L266.2,101.3 L262.4,98.7 L256.0,96.0 L256.0,96.0 L250.0,98.7 L246.9,101.3 L244.4,104.0 L242.2,106.7 L240.0,109.3 L237.8,112.0 L235.5,114.7 L233.0,117.3 L230.5,120.0 L228.1,122.7 L225.8,125.3 L223.8,128.0 L222.3,130.7 L221.1,133.3 L220.4,136.0 L220.2,138.7 L220.2,141.3 L220.4,144.0 L220.6,146.7 L220.6,149.3 L220.3,152.0 L219.7,154.7 L218.7,157.3 L217.4,160.0 L215.8,162.7 L214.2,165.3 L212.7,168.0 L211.5,170.7 L210.7,173.3 L210.4,176.0 L210.7,178.7 L211.5,181.3 L212.7,184.0 L214.2,186.7 L215.8,189.3 L217.4,192.0 L218.7,194.7 L219.7,197.3 L220.3,200.0 L220.6,202.7 L220.6,205.3 L220.4,208.0 L220.2,210.7 L220.2,213.3 L220.4,216.0 L221.1,218.7 L222.3,221.3 L223.8,224.0 L225.8,226.7 L228.1,229.3 L230.5,232.0 L233.0,234.7 L235.5,237.3 L237.8,240.0 L240.0,242.7 L242.2,245.3 L244.4,248.0 L246.9,250.7 L250.0,253.3 L256.0,256.0Z" fill="url(#pf)" stroke="#289E8E" stroke-width="2.2" stroke-linejoin="round"/>
    <path d="M256.0,248.0 L256.0,244.4 L256.2,240.8 L256.3,237.2 L256.3,233.6 L256.2,230.0 L255.9,226.4 L255.6,222.8 L255.3,219.2 L255.2,215.6 L255.4,212.0 L255.8,208.4 L256.3,204.8 L256.8,201.2 L257.1,197.6 L257.0,194.0 L256.7,190.4 L256.1,186.8 L255.5,183.2 L255.0,179.6 L254.8,176.0 L255.0,172.4 L255.5,168.8 L256.1,165.2 L256.7,161.6 L257.0,158.0 L257.1,154.4 L256.8,150.8 L256.3,147.2 L255.8,143.6 L255.4,140.0 L255.2,136.4 L255.3,132.8 L255.6,129.2 L255.9,125.6 L256.2,122.0 L256.3,118.4 L256.3,114.8 L256.2,111.2 L256.0,107.6 L256.0,104.0" fill="none" stroke="#289E8E" stroke-width="1.0" stroke-opacity="0.32"/>
    <path d="M256.0,256.0 L256.1,250.1 L255.3,246.1 L254.4,242.5 L253.2,239.4 L251.9,236.6 L250.4,234.2 L248.8,232.2 L247.0,230.4 L245.2,228.7 L243.4,227.0 L241.7,225.2 L240.0,223.1 L238.5,220.8 L237.1,218.2 L235.8,215.5 L234.5,212.7 L233.0,210.2 L231.5,207.9 L229.7,206.2 L227.8,204.9 L225.6,204.0 L223.3,203.5 L220.8,203.2 L218.4,202.9 L216.1,202.4 L213.9,201.5 L211.9,200.3 L210.1,198.6 L208.4,196.6 L206.8,194.5 L205.2,192.5 L203.4,190.7 L201.5,189.4 L199.3,188.5 L196.9,188.2 L194.3,188.3 L191.5,188.8 L188.7,189.3 L185.9,189.8 L183.2,190.1 L180.7,190.0 L178.3,189.6 L176.1,188.8 L174.0,187.9 L171.9,186.9 L169.7,186.0 L167.5,185.4 L165.0,185.1 L162.4,185.3 L159.6,185.9 L156.6,186.8 L153.6,187.8 L150.5,188.9 L147.5,190.0 L144.5,190.9 L141.6,191.8 L138.7,192.6 L135.7,193.6 L132.4,195.1 L128.2,198.8 L128.2,198.8 L128.1,204.8 L128.9,208.8 L129.8,212.3 L131.0,215.4 L132.3,218.2 L133.8,220.6 L135.4,222.6 L137.2,224.4 L139.0,226.1 L140.8,227.8 L142.6,229.6 L144.2,231.7 L145.7,234.0 L147.1,236.6 L148.4,239.3 L149.8,242.1 L151.2,244.6 L152.7,246.9 L154.5,248.7 L156.4,250.0 L158.6,250.8 L161.0,251.3 L163.4,251.6 L165.8,251.9 L168.1,252.4 L170.3,253.3 L172.3,254.6 L174.1,256.2 L175.8,258.2 L177.4,260.3 L179.0,262.3 L180.8,264.1 L182.8,265.4 L184.9,266.3 L187.3,266.6 L190.0,266.5 L192.7,266.0 L195.5,265.5 L198.3,265.0 L201.0,264.7 L203.5,264.8 L205.9,265.2 L208.1,266.0 L210.2,266.9 L212.3,267.9 L214.5,268.8 L216.8,269.4 L219.2,269.7 L221.8,269.5 L224.7,268.9 L227.6,268.1 L230.6,267.0 L233.7,265.9 L236.7,264.8 L239.7,263.9 L242.6,263.0 L245.6,262.2 L248.6,261.2 L251.8,259.7 L256.0,256.0Z" fill="url(#pf)" stroke="#289E8E" stroke-width="2.2" stroke-linejoin="round"/>
    <path d="M249.6,253.1 L246.8,251.8 L243.9,250.4 L241.1,249.0 L238.2,247.8 L235.2,246.7 L232.2,245.7 L229.2,244.7 L226.3,243.5 L223.5,242.0 L220.9,240.3 L218.2,238.5 L215.5,236.9 L212.6,235.5 L209.6,234.6 L206.5,233.8 L203.3,233.2 L200.3,232.3 L197.4,231.0 L194.7,229.3 L192.1,227.4 L189.5,225.5 L186.8,223.8 L183.9,222.5 L180.9,221.6 L177.7,221.0 L174.6,220.3 L171.6,219.3 L168.7,218.0 L166.0,216.3 L163.4,214.5 L160.7,212.8 L157.9,211.4 L155.0,210.1 L152.0,209.1 L149.0,208.1 L146.0,207.0 L143.1,205.8 L140.3,204.4 L137.5,203.0 L134.6,201.7" fill="none" stroke="#289E8E" stroke-width="1.0" stroke-opacity="0.32"/>
    <path d="M256.0,256.0 L260.4,260.0 L263.9,262.1 L267.1,263.8 L270.3,265.0 L273.2,265.9 L276.0,266.3 L278.6,266.5 L281.1,266.4 L283.5,266.1 L286.0,265.9 L288.5,265.8 L291.1,266.0 L293.9,266.4 L296.8,267.1 L299.7,267.9 L302.6,268.8 L305.5,269.4 L308.2,269.7 L310.7,269.6 L313.0,269.0 L315.0,268.0 L317.0,266.6 L318.8,265.0 L320.7,263.4 L322.6,262.0 L324.7,260.9 L326.9,260.3 L329.4,260.0 L332.0,260.1 L334.6,260.3 L337.2,260.4 L339.7,260.3 L342.0,259.7 L344.1,258.7 L346.0,257.1 L347.6,255.0 L349.1,252.7 L350.6,250.2 L352.0,247.8 L353.6,245.6 L355.4,243.8 L357.2,242.3 L359.3,241.2 L361.4,240.2 L363.6,239.3 L365.7,238.3 L367.7,237.0 L369.5,235.4 L371.1,233.3 L372.5,230.8 L373.9,228.0 L375.1,225.1 L376.3,222.1 L377.5,219.1 L378.8,216.2 L380.1,213.5 L381.5,210.7 L382.7,207.8 L383.7,204.4 L383.8,198.8 L383.8,198.8 L379.4,194.8 L375.9,192.7 L372.6,191.1 L369.5,189.8 L366.6,188.9 L363.8,188.5 L361.2,188.3 L358.7,188.4 L356.2,188.7 L353.8,188.9 L351.3,189.0 L348.6,188.8 L345.9,188.4 L343.0,187.7 L340.1,186.9 L337.2,186.1 L334.3,185.4 L331.6,185.1 L329.1,185.2 L326.8,185.8 L324.8,186.8 L322.8,188.3 L321.0,189.9 L319.1,191.4 L317.2,192.8 L315.1,193.9 L312.9,194.5 L310.4,194.8 L307.8,194.7 L305.2,194.5 L302.6,194.4 L300.1,194.5 L297.8,195.1 L295.7,196.1 L293.8,197.7 L292.2,199.8 L290.7,202.1 L289.2,204.6 L287.8,207.0 L286.2,209.2 L284.4,211.0 L282.5,212.5 L280.5,213.6 L278.4,214.6 L276.2,215.5 L274.1,216.5 L272.1,217.8 L270.3,219.5 L268.7,221.5 L267.2,224.0 L265.9,226.8 L264.7,229.7 L263.5,232.8 L262.3,235.7 L261.0,238.6 L259.7,241.3 L258.3,244.1 L257.1,247.0 L256.0,250.4 L256.0,256.0Z" fill="url(#pf)" stroke="#289E8E" stroke-width="2.2" stroke-linejoin="round"/>
    <path d="M262.4,253.1 L265.3,251.9 L268.2,250.7 L271.1,249.5 L274.0,248.2 L276.8,246.7 L279.5,245.1 L282.3,243.6 L285.1,242.2 L288.1,241.1 L291.1,240.3 L294.2,239.5 L297.3,238.5 L300.2,237.3 L302.9,235.7 L305.5,233.8 L308.1,231.9 L310.8,230.3 L313.7,229.0 L316.7,228.1 L319.9,227.4 L323.1,226.8 L326.1,225.9 L329.0,224.6 L331.7,222.9 L334.3,221.0 L336.9,219.1 L339.6,217.5 L342.5,216.3 L345.6,215.3 L348.6,214.5 L351.7,213.7 L354.7,212.6 L357.5,211.2 L360.3,209.7 L363.0,208.1 L365.8,206.6 L368.7,205.3 L371.6,204.1 L374.5,202.9 L377.4,201.7" fill="none" stroke="#289E8E" stroke-width="1.0" stroke-opacity="0.32"/>
    <path d="M256.0,256.0 L251.3,253.5 L247.8,252.5 L244.6,251.8 L241.7,251.5 L239.0,251.6 L236.7,251.9 L234.5,252.6 L232.4,253.3 L230.3,254.0 L228.1,254.6 L225.6,254.9 L223.0,255.0 L220.2,254.8 L217.4,254.6 L214.7,254.6 L212.2,254.8 L210.0,255.4 L208.1,256.4 L206.6,257.8 L205.3,259.5 L204.0,261.3 L202.7,262.9 L201.1,264.3 L199.2,265.2 L197.0,265.8 L194.6,266.1 L192.0,266.3 L189.6,266.6 L187.4,267.2 L185.6,268.3 L184.2,269.8 L183.1,271.8 L182.3,274.2 L181.6,276.6 L180.8,278.9 L179.7,280.9 L178.4,282.6 L176.7,283.9 L174.8,284.8 L172.9,285.7 L170.9,286.6 L169.2,287.8 L167.8,289.4 L166.8,291.4 L166.1,293.8 L165.5,296.5 L165.1,299.3 L164.7,302.1 L164.0,304.6 L163.2,306.9 L162.2,309.0 L161.1,310.9 L159.9,312.8 L158.9,314.8 L158.0,317.0 L157.4,319.6 L157.1,322.5 L157.0,325.8 L157.3,329.4 L158.7,334.5 L158.7,334.5 L163.2,336.7 L166.3,337.2 L169.1,337.4 L171.9,337.5 L174.7,337.7 L177.6,338.0 L180.5,338.3 L183.5,338.6 L186.3,338.8 L188.8,338.6 L191.1,338.2 L193.1,337.3 L194.9,336.2 L196.5,334.9 L198.1,333.6 L199.9,332.5 L201.9,331.6 L204.2,331.2 L206.8,331.0 L209.5,331.0 L212.1,331.0 L214.7,330.8 L216.8,330.2 L218.7,329.1 L220.1,327.6 L221.2,325.7 L222.2,323.6 L223.2,321.5 L224.3,319.6 L225.8,318.1 L227.6,317.0 L229.6,316.2 L231.9,315.7 L234.2,315.2 L236.3,314.5 L238.1,313.4 L239.5,311.9 L240.6,309.9 L241.3,307.5 L241.9,304.8 L242.4,302.2 L243.1,299.8 L244.1,297.6 L245.3,295.8 L246.8,294.3 L248.4,293.0 L250.0,291.7 L251.5,290.2 L252.7,288.4 L253.7,286.3 L254.3,283.8 L254.8,281.0 L255.1,278.1 L255.4,275.2 L255.7,272.3 L256.2,269.5 L256.7,266.8 L257.1,264.0 L257.2,260.8 L256.0,256.0Z" fill="url(#pf)" stroke="#289E8E" stroke-width="2.2" stroke-linejoin="round"/>
    <path d="M251.1,259.9 L248.9,261.6 L246.6,263.3 L244.4,265.0 L242.3,266.9 L240.3,268.9 L238.3,270.9 L236.2,272.8 L233.9,274.4 L231.4,275.8 L228.9,277.1 L226.5,278.7 L224.4,280.5 L222.5,282.7 L220.8,285.0 L219.0,287.2 L216.8,289.0 L214.3,290.4 L211.6,291.6 L209.0,292.8 L206.6,294.3 L204.6,296.3 L202.9,298.7 L201.2,301.0 L199.3,303.2 L197.1,304.9 L194.5,306.2 L191.9,307.4 L189.4,308.8 L187.1,310.5 L185.1,312.5 L183.3,314.6 L181.4,316.8 L179.3,318.7 L177.0,320.4 L174.7,321.9 L172.3,323.4 L170.0,325.1 L167.9,326.9 L165.8,328.8 L163.6,330.6" fill="none" stroke="#289E8E" stroke-width="1.0" stroke-opacity="0.32"/>
    <path d="M256.0,256.0 L254.6,261.1 L254.3,264.7 L254.3,268.0 L254.7,270.9 L255.3,273.5 L256.1,275.8 L257.2,277.8 L258.3,279.7 L259.5,281.6 L260.5,283.6 L261.3,285.9 L261.9,288.5 L262.4,291.2 L262.8,294.0 L263.3,296.7 L264.0,299.1 L265.1,301.1 L266.5,302.7 L268.2,303.9 L270.1,304.8 L272.1,305.7 L274.0,306.7 L275.7,307.9 L277.0,309.6 L278.0,311.6 L278.8,313.9 L279.6,316.4 L280.4,318.7 L281.4,320.7 L282.8,322.3 L284.7,323.3 L286.8,323.9 L289.3,324.2 L291.8,324.4 L294.3,324.7 L296.5,325.3 L298.4,326.2 L299.9,327.6 L301.3,329.3 L302.5,331.0 L303.8,332.7 L305.4,334.1 L307.2,335.2 L309.4,335.8 L311.9,336.0 L314.7,335.9 L317.5,335.7 L320.3,335.6 L322.9,335.6 L325.3,336.0 L327.5,336.5 L329.6,337.2 L331.7,338.0 L333.9,338.6 L336.3,338.9 L339.0,339.0 L341.9,338.7 L345.1,338.0 L348.6,337.0 L353.3,334.5 L353.3,334.5 L354.5,329.7 L354.3,326.6 L353.9,323.8 L353.4,321.0 L353.0,318.3 L352.7,315.4 L352.4,312.4 L352.0,309.5 L351.6,306.7 L350.9,304.2 L350.0,302.1 L348.7,300.3 L347.3,298.8 L345.6,297.5 L344.0,296.2 L342.6,294.7 L341.3,292.9 L340.4,290.8 L339.7,288.3 L339.1,285.7 L338.6,283.1 L337.8,280.7 L336.8,278.6 L335.4,277.1 L333.6,276.0 L331.4,275.3 L329.2,274.8 L326.9,274.3 L324.8,273.6 L323.0,272.5 L321.6,270.9 L320.4,269.1 L319.4,267.0 L318.5,264.8 L317.4,262.9 L315.9,261.4 L314.1,260.3 L311.9,259.7 L309.4,259.5 L306.7,259.5 L304.0,259.5 L301.5,259.3 L299.2,258.9 L297.2,258.1 L295.4,256.9 L293.8,255.6 L292.1,254.3 L290.4,253.2 L288.4,252.4 L286.1,251.9 L283.5,251.8 L280.7,251.9 L277.8,252.2 L274.9,252.5 L272.0,252.8 L269.1,253.0 L266.4,253.1 L263.6,253.3 L260.5,253.8 L256.0,256.0Z" fill="url(#pf)" stroke="#289E8E" stroke-width="2.2" stroke-linejoin="round"/>
    <path d="M260.9,259.9 L263.0,261.7 L265.1,263.6 L267.3,265.4 L269.5,267.1 L271.9,268.6 L274.3,270.1 L276.6,271.8 L278.6,273.7 L280.5,275.9 L282.4,278.1 L284.4,280.1 L286.6,281.7 L289.2,283.1 L291.8,284.3 L294.3,285.6 L296.6,287.3 L298.4,289.5 L300.1,291.9 L301.9,294.2 L303.9,296.2 L306.2,297.7 L308.9,298.9 L311.6,300.1 L314.1,301.5 L316.2,303.3 L318.1,305.5 L319.8,307.8 L321.6,310.0 L323.8,311.9 L326.1,313.4 L328.7,314.7 L331.1,316.1 L333.5,317.8 L335.6,319.6 L337.6,321.6 L339.6,323.6 L341.7,325.5 L343.9,327.2 L346.2,328.9 L348.4,330.6" fill="none" stroke="#289E8E" stroke-width="1.0" stroke-opacity="0.32"/>
    <circle cx="256" cy="256" r="22.0" fill="url(#cg)"/>
    <clipPath id="cc256256"><circle cx="256" cy="256" r="22.0"/></clipPath>
    <path d="M237.3,256.0 L238.2,259.2 L239.2,261.7 L240.1,263.0 L241.0,262.7 L242.0,261.0 L242.9,258.2 L243.8,254.9 L244.8,251.9 L245.7,249.7 L246.7,249.0 L247.6,249.7 L248.5,251.9 L249.5,254.9 L250.4,258.2 L251.3,261.0 L252.3,262.7 L253.2,263.0 L254.1,261.7 L255.1,259.2 L256.0,256.0 L256.9,252.8 L257.9,250.3 L258.8,249.0 L259.7,249.3 L260.7,251.0 L261.6,253.8 L262.5,257.1 L263.5,260.1 L264.4,262.3 L265.4,263.0 L266.3,262.3 L267.2,260.1 L268.2,257.1 L269.1,253.8 L270.0,251.0 L271.0,249.3 L271.9,249.0 L272.8,250.3 L273.8,252.8 L274.7,256.0" fill="none" stroke="white" stroke-width="2.2" stroke-linecap="round" clip-path="url(#cc256256)"/>
  </g>
</svg>